<?xml version="1.0" encoding="UTF-8"?>
<svg id="_Слой_1" data-name="Слой 1" xmlns="http://www.w3.org/2000/svg" viewBox="0 0 600 400">
  <defs>
    <style>
      .cls-1 {
        fill: #fff;
      }

      .cls-2 {
        fill: #020202;
      }
    </style>
  </defs>
  <path class="cls-2" d="m0,400C0,266.67,0,133.33,0,0c200,0,400,0,600,0,0,133.33,0,266.67,0,400-200,0-400,0-600,0Zm247.53-172.69c0-1.06,0-1.99,0-2.92,0-9.21.04-18.43,0-27.64,0-1.2.3-1.61,1.75-1.6,10.26.05,20.52.01,30.77,0,.57,0,1.13,0,1.94,0v32c.34.12.43.18.53.18,5.23.02,10.47.01,15.7.05,1.01,0,1.09-.47,1.08-1.16-.01-2.96,0-5.92,0-8.88,0-21.06,0-42.12.03-63.18,0-1.24-.29-1.72-1.83-1.68-4.49.1-8.99.1-13.48.02-1.56-.03-2.09.32-2.08,1.78.07,8.65.03,17.3.03,25.95,0,.54,0,1.08,0,1.73-.84,0-1.42,0-1.99,0-10.15,0-20.3-.04-30.46.02-1.56,0-2.05-.27-2.03-1.76.1-8.65,0-17.3.1-25.95.02-1.49-.52-1.8-2.06-1.77-4.6.08-9.2.03-13.8.04-.51,0-1.03.05-1.64.08v74.68h17.46Zm126.2-54.01c.03-.49.07-.81.06-1.14-.38-6.8-3.46-12.32-9.85-16.24-11.03-6.77-30.2-6.11-40.66,1.38-7.93,5.68-10.82,16.4-6.56,24.56,2.49,4.77,6.8,7.95,12.14,9.85,5.53,1.97,11.29,3.43,16.92,5.2,2.73.86,5.46,1.77,8.04,2.93,2.47,1.11,4,3.02,4.4,5.54.79,4.94-1.98,8.78-7.41,10.21-3.53.93-7.1.89-10.68.28-6.5-1.11-10.06-4.3-11.15-10.05-.17-.89-.58-1.15-1.55-1.14-4.6.03-9.2,0-13.8,0-.35,0-.7.1-1.18.17.13,6.78,2.48,12.62,8.35,17.05,5.58,4.22,12.26,5.99,19.42,6.48,7.92.54,15.56-.23,22.8-3.56,15.21-7.02,16.76-28.85,1.09-36.59-5.34-2.64-11.1-4.11-16.85-5.7-3.48-.96-6.97-1.91-10.35-3.11-3.61-1.28-5.39-3.84-5.28-7.32.11-3.53,1.98-6.09,5.68-7.47,3.15-1.18,6.49-1.34,9.83-.99,6.63.69,10.23,4.11,10.81,9.35,0,.08.1.16.21.32h15.58Zm-62.3,71.1c-4.74-3.25-9.5-.87-10.8,2.22-1.21,2.87-1.36,5.8-.15,8.69,1.34,3.22,5.2,4.75,8.66,3.5.76-.27,1.43-.73,2.37-1.22,0,2.25-.04,4.34.04,6.43.01.36.48.98.81,1.02,1.08.13,2.19.05,3.3.05.09-.29.19-.47.2-.65.03-6.77.05-13.54.05-20.31,0-.29-.12-.71-.35-.86-1.03-.66-3.7.1-4.12,1.12Zm56.57.11c-4.12-2.48-7.89-2.01-10.18,1.07-2.12,2.85-2.1,8.23.03,11.04,2.25,2.97,6.44,3.47,9.5,1.14.21-.16.47-.27.74-.43.17.56.3.99.46,1.52.81,0,1.55-.06,2.27.01,1.23.12,1.63-.25,1.62-1.4-.07-6.39-.04-12.79-.04-19.18,0-.5,0-1,0-1.53h-4.4v7.75Zm-137.6-7.8v22.03h4.29c0-3.3,0-6.49,0-9.67,0-1.72,1.31-2.9,3.24-2.96,1.98-.06,3.07.84,3.16,2.76.07,1.55.02,3.1.02,4.65,0,1.72,0,3.45,0,5.33,1.33,0,2.48.04,3.62-.03.27-.02.71-.45.71-.69-.01-3.71.14-7.43-.22-11.11-.29-2.97-3-4.57-6.38-4.07-1.38.2-2.68.89-4.18,1.41v-7.64h-4.27Zm122.69,22.13c0-1.94,0-3.66,0-5.38,0-1.64.04-3.29,0-4.93-.06-1.98-.73-3.75-2.83-4.74-2.98-1.4-6.02-1.35-8.92.15-1.6.83-2.53,2.14-2.56,3.95.57.02.94.05,1.3.05.69.01,1.38.07,2.06,0,.34-.04.77-.26.94-.52.97-1.44,2.28-1.94,3.92-1.42,1.44.46,1.92,1.46,1.51,3.4-.94,0-1.95-.12-2.91.03-1.64.25-3.37.45-4.85,1.07-2.14.9-2.82,2.7-2.53,4.75.28,1.92,1.71,3.26,3.96,3.75,2.47.53,4.69.12,6.56-1.53.97,2.42,3.06.94,4.35,1.36Zm-28.93-15.67c-1.24,0-2.24.03-3.23,0-.92-.04-1.18.34-1.17,1.1.05,3.38.02,6.77.09,10.15.04,1.98.97,3.6,3.11,4.38,2.24.82,4.45.68,6.46-.65.4-.26.76-.55,1.23-.89.13.61.23,1.05.35,1.61.67,0,1.31-.07,1.92.01,1.54.2,2.14-.23,2.09-1.73-.11-3.8,0-7.61-.03-11.42-.02-3.01.37-2.44-2.85-2.57-1.31-.05-1.61.38-1.58,1.46.08,2.77.07,5.54.03,8.32,0,.57-.19,1.23-.54,1.69-.85,1.14-2.64,1.58-4.1,1.16-1.59-.45-1.78-1.62-1.79-2.83-.03-3.19,0-6.37,0-9.78Zm-41.83,10.7c0,2.1.9,3.48,2.67,4.29,3.33,1.53,6.75,1.55,9.99-.16,3.22-1.7,2.96-5.91-.41-7.35-1.22-.52-2.6-.77-3.9-1.13-.86-.23-1.77-.35-2.57-.69-1.27-.56-1.33-1.93-.2-2.64,1.5-.95,3.78-.46,4.64.99.18.3.47.74.73.75,1.18.08,2.36.04,3.63.04-.29-2.52-1.6-4.06-4.04-4.65-1.35-.32-2.83-.46-4.21-.35-3.52.27-5.63,1.97-5.8,4.43-.17,2.41,1.4,3.93,4.98,4.8,1.27.31,2.59.51,3.82.92,1.44.49,1.67,1.87.56,2.69-1.63,1.2-4.8.53-5.72-1.15-.19-.35-.76-.69-1.2-.75-.92-.11-1.88-.03-2.97-.03Zm-19.45,1.92c.77-.91,1.3-1.54,1.83-2.17,2.05-2.39,4.13-4.76,6.16-7.16,1.06-1.25.69-3.26-.56-3.27-3.96-.03-7.93-.03-11.89.03-.36,0-.92.51-1,.85-.16.66-.05,1.37-.05,2.28h8.55c-2.65,3.05-5.01,5.88-7.52,8.59-1.09,1.18-1.3,2.36-.93,3.79h14.17v-2.95h-8.77Zm-9,3.04c0-.68,0-1.18,0-1.69,0-3.76,0-7.51,0-11.27,0-2.94-.15-3.09-3.47-2.66-.35.05-.89.54-.9.82-.05,4.65-.05,9.3,0,13.95,0,.28.46.78.75.81,1.13.09,2.28.04,3.62.04Zm-2.2-17.78c1.35-.03,2.39-.99,2.35-2.17-.04-1.23-1.07-2.08-2.46-2.03-1.37.05-2.4.99-2.38,2.16.02,1.16,1.12,2.06,2.49,2.04Z"/>
  <path class="cls-1" d="m247.31,227.37h-17.45v-74.7c.61-.03,1.13-.08,1.64-.08,4.6,0,9.19.04,13.79-.04,1.54-.03,2.08.29,2.06,1.77-.09,8.65,0,17.3-.1,25.95-.02,1.49.47,1.77,2.03,1.76,10.14-.06,20.29-.02,30.43-.02.57,0,1.15,0,1.99,0,0-.65,0-1.19,0-1.73,0-8.65.04-17.3-.03-25.95-.01-1.46.52-1.81,2.08-1.79,4.49.08,8.98.08,13.47-.02,1.54-.04,1.83.45,1.83,1.68-.04,21.06-.02,42.13-.03,63.19,0,2.96-.02,5.92,0,8.89,0,.69-.08,1.17-1.08,1.16-5.23-.04-10.46-.04-15.69-.05-.1,0-.19-.06-.53-.18v-32.01c-.81,0-1.37,0-1.94,0-10.25,0-20.5.04-30.75,0-1.44,0-1.75.4-1.75,1.6.04,9.22.01,18.43,0,27.65,0,.93,0,1.86,0,2.92Z"/>
  <path class="cls-1" d="m373.4,173.35h-15.57c-.11-.16-.2-.24-.21-.32-.58-5.24-4.17-8.65-10.8-9.35-3.33-.35-6.66-.2-9.82.99-3.69,1.39-5.56,3.94-5.67,7.48-.11,3.48,1.67,6.04,5.27,7.32,3.37,1.2,6.86,2.15,10.34,3.11,5.75,1.59,11.51,3.06,16.84,5.7,15.66,7.74,14.11,29.58-1.09,36.6-7.23,3.34-14.86,4.1-22.78,3.56-7.15-.49-13.83-2.26-19.4-6.48-5.86-4.44-8.21-10.27-8.34-17.06.49-.07.84-.17,1.18-.17,4.6,0,9.19.03,13.79,0,.97,0,1.38.25,1.55,1.14,1.09,5.75,4.65,8.94,11.14,10.05,3.57.61,7.15.65,10.67-.28,5.43-1.43,8.2-5.27,7.4-10.21-.4-2.52-1.93-4.43-4.4-5.54-2.58-1.15-5.31-2.07-8.04-2.93-5.62-1.77-11.37-3.23-16.9-5.2-5.33-1.9-9.64-5.08-12.13-9.85-4.25-8.16-1.36-18.88,6.55-24.56,10.44-7.5,29.6-8.15,40.62-1.39,6.38,3.92,9.46,9.44,9.84,16.24.02.32-.03.65-.06,1.14Z"/>
  <path class="cls-1" d="m311.16,244.46c.42-1.02,3.09-1.77,4.12-1.12.23.15.35.56.35.86,0,6.77-.02,13.54-.05,20.31,0,.18-.1.35-.2.65-1.11,0-2.22.08-3.29-.05-.33-.04-.8-.66-.81-1.02-.08-2.09-.04-4.19-.04-6.43-.94.49-1.61.95-2.36,1.22-3.45,1.25-7.31-.29-8.65-3.5-1.21-2.89-1.05-5.83.15-8.69,1.3-3.08,6.05-5.46,10.79-2.22Zm.09,6.67h-.02c0-.56,0-1.13,0-1.69-.02-1.92-1.02-3.04-2.9-3.29-1.83-.24-3.68.76-3.96,2.52-.27,1.68-.23,3.46.06,5.14.29,1.66,2,2.49,3.81,2.25,1.81-.24,2.98-1.44,3.02-3.09.01-.61,0-1.22,0-1.83Z"/>
  <path class="cls-1" d="m367.69,244.57v-7.75h4.4c0,.53,0,1.03,0,1.53,0,6.39-.02,12.79.04,19.18.01,1.15-.39,1.52-1.62,1.4-.73-.07-1.47-.01-2.27-.01-.16-.53-.29-.96-.46-1.52-.28.16-.53.27-.74.43-3.06,2.33-7.24,1.83-9.5-1.14-2.13-2.82-2.15-8.2-.03-11.05,2.29-3.07,6.06-3.54,10.17-1.07Zm.02,6.63c0-.61,0-1.22,0-1.83-.02-1.84-.96-2.91-2.8-3.22-1.8-.3-3.27.43-3.96,2.1-.81,1.97-.75,3.97.07,5.92.63,1.49,2.24,2.18,3.97,1.86,1.67-.32,2.69-1.44,2.72-3,.01-.61,0-1.22,0-1.83Z"/>
  <path class="cls-1" d="m230.2,236.77h4.27v7.64c1.51-.52,2.8-1.21,4.18-1.41,3.37-.5,6.08,1.11,6.37,4.07.36,3.68.2,7.41.22,11.11,0,.24-.44.67-.71.69-1.14.08-2.29.03-3.62.03,0-1.88,0-3.6,0-5.33,0-1.55.05-3.1-.02-4.65-.09-1.92-1.18-2.83-3.16-2.76-1.93.06-3.24,1.24-3.24,2.96,0,3.19,0,6.37,0,9.68h-4.29v-22.04Z"/>
  <path class="cls-1" d="m352.79,258.91c-1.29-.42-3.38,1.06-4.34-1.36-1.87,1.66-4.09,2.07-6.55,1.53-2.25-.49-3.68-1.83-3.96-3.75-.29-2.05.38-3.85,2.52-4.75,1.48-.62,3.2-.82,4.84-1.08.96-.15,1.97-.03,2.91-.03.41-1.94-.07-2.95-1.51-3.4-1.64-.52-2.95-.02-3.92,1.42-.17.26-.6.48-.94.52-.67.08-1.37.02-2.05,0-.36,0-.73-.03-1.3-.05.03-1.81.96-3.13,2.55-3.96,2.9-1.5,5.94-1.56,8.92-.15,2.09.99,2.76,2.76,2.82,4.74.05,1.64,0,3.29,0,4.93,0,1.72,0,3.44,0,5.38Zm-4.64-7.16c-1.45.18-2.97.24-4.4.57-1.15.27-1.59,1.19-1.44,2.24.15,1.07,1,1.5,2.07,1.64,3,.41,4.51-1.24,3.78-4.46Z"/>
  <path class="cls-1" d="m323.89,243.24c0,3.41-.02,6.6,0,9.79.01,1.21.2,2.37,1.79,2.83,1.45.42,3.24-.02,4.09-1.16.35-.47.53-1.12.54-1.7.04-2.77.05-5.55-.03-8.32-.03-1.08.27-1.51,1.57-1.46,3.21.13,2.83-.44,2.85,2.57.03,3.81-.08,7.62.03,11.42.05,1.5-.55,1.92-2.09,1.73-.61-.08-1.25-.01-1.92-.01-.12-.56-.22-1-.35-1.61-.47.34-.84.63-1.23.89-2.01,1.32-4.22,1.46-6.46.65-2.14-.78-3.07-2.4-3.11-4.38-.08-3.38-.04-6.77-.09-10.15-.01-.76.24-1.14,1.17-1.1.99.04,1.99,0,3.23,0Z"/>
  <path class="cls-1" d="m282.09,253.94c1.09,0,2.04-.08,2.97.03.44.05,1.01.4,1.2.75.92,1.68,4.08,2.35,5.72,1.15,1.11-.82.88-2.2-.56-2.69-1.22-.41-2.54-.61-3.81-.92-3.57-.87-5.14-2.39-4.97-4.8.17-2.46,2.27-4.16,5.79-4.43,1.39-.11,2.86.03,4.21.35,2.43.58,3.74,2.13,4.03,4.65-1.27,0-2.46.05-3.63-.04-.27-.02-.56-.46-.73-.75-.86-1.44-3.13-1.94-4.64-.99-1.13.72-1.07,2.09.2,2.64.79.35,1.71.46,2.56.69,1.31.36,2.68.6,3.9,1.13,3.37,1.45,3.63,5.65.41,7.36-3.23,1.71-6.65,1.69-9.98.16-1.76-.81-2.67-2.19-2.67-4.29Z"/>
  <path class="cls-1" d="m262.67,255.86h8.77v2.95h-14.16c-.37-1.43-.16-2.61.93-3.79,2.5-2.72,4.86-5.54,7.51-8.6h-8.55c0-.91-.11-1.62.05-2.28.08-.35.65-.85,1-.85,3.96-.06,7.92-.07,11.88-.03,1.24.01,1.61,2.02.56,3.27-2.02,2.41-4.1,4.78-6.16,7.17-.53.62-1.06,1.25-1.83,2.17Z"/>
  <path class="cls-1" d="m253.67,258.91c-1.34,0-2.49.06-3.62-.04-.29-.02-.74-.52-.75-.81-.05-4.65-.05-9.3,0-13.95,0-.29.55-.78.9-.82,3.32-.43,3.47-.29,3.47,2.66,0,3.76,0,7.52,0,11.27,0,.5,0,1.01,0,1.69Z"/>
  <path class="cls-1" d="m251.48,241.13c-1.36.03-2.47-.87-2.49-2.04-.02-1.17,1.01-2.1,2.37-2.16,1.39-.05,2.42.79,2.46,2.03.04,1.18-1,2.14-2.35,2.17Z"/>
  <path d="m311.26,251.14c0,.61,0,1.22,0,1.83-.03,1.65-1.2,2.85-3.02,3.09-1.81.24-3.52-.59-3.81-2.25-.29-1.68-.33-3.46-.06-5.14.28-1.76,2.13-2.75,3.96-2.52,1.89.24,2.88,1.37,2.9,3.29,0,.56,0,1.13,0,1.69h.02Z"/>
  <path d="m367.7,251.2c0,.61,0,1.22,0,1.83-.03,1.56-1.05,2.69-2.72,3-1.72.33-3.34-.37-3.97-1.86-.82-1.95-.88-3.96-.07-5.92.69-1.67,2.16-2.4,3.96-2.1,1.84.31,2.78,1.38,2.8,3.22,0,.61,0,1.22,0,1.83Z"/>
  <path d="m348.14,251.75c.73,3.22-.78,4.87-3.78,4.46-1.07-.15-1.92-.58-2.07-1.64-.15-1.06.3-1.97,1.44-2.24,1.44-.34,2.95-.4,4.4-.57Z"/>
</svg>